<?xml version="1.0" ?><!DOCTYPE svg  PUBLIC '-//W3C//DTD SVG 1.1//EN'  'http://www.w3.org/Graphics/SVG/1.1/DTD/svg11.dtd'><svg enable-background="new 0 0 153 153" height="153px" id="Layer_1" version="1.1" viewBox="0 0 153 153" width="153px" xml:space="preserve" xmlns="http://www.w3.org/2000/svg" xmlns:xlink="http://www.w3.org/1999/xlink"><g><path d="M152.5,122.1c0,16.789-13.611,30.4-30.4,30.4H30.9c-16.789,0-30.4-13.611-30.4-30.4V30.898   C0.5,14.109,14.111,0.5,30.9,0.5H122.1c16.789,0,30.4,13.609,30.4,30.398V122.1z" fill="#F1635A"/><g><path d="M14.017,52.885l10.168,65.149c0.456,2.927,3.2,4.929,6.128,4.472l104.198-16.263    c2.927-0.456,4.931-3.2,4.473-6.127l-10.168-65.148c-0.456-2.928-3.2-4.93-6.127-4.474L18.49,46.758    C15.563,47.214,13.559,49.958,14.017,52.885z M20.748,55.43c-0.408-2.612,1.379-5.062,3.99-5.469l92.975-14.511    c2.611-0.407,5.06,1.38,5.467,3.992l9.072,58.129c0.408,2.612-1.379,5.062-3.99,5.469l-92.974,14.511    c-2.612,0.407-5.06-1.381-5.468-3.992L20.748,55.43z" fill="#FFFFFF"/><path d="M107.665,61.447c-0.094-3.146-2.25-4.894-5.095-4.069c-4.258,3.206-8.236,5.832-12.063,8.285l-0.892-5.671    c-0.645-4.096-3.797-7.003-7.043-6.492l-35.455,5.573c-3.245,0.51-5.354,4.244-4.71,8.34l4.532,28.838    c0.644,4.096,3.797,7.002,7.042,6.492l35.455-5.573c3.246-0.511,5.355-4.245,4.712-8.34l-0.892-5.672    c4.395,1.16,8.986,2.439,14.023,4.186c2.961-0.09,4.476-2.415,3.6-5.437C108.991,75.216,107.92,68.396,107.665,61.447z" fill="#FFFFFF"/></g></g></svg>